<!DOCTYPE svg PUBLIC "-//W3C//DTD SVG 1.1//EN" "http://www.w3.org/Graphics/SVG/1.1/DTD/svg11.dtd">
<!-- Uploaded to: SVG Repo, www.svgrepo.com, Transformed by: SVG Repo Mixer Tools -->
<svg fill="#000000" width="800px" height="800px" viewBox="0 0 16 16" xmlns="http://www.w3.org/2000/svg">
<g id="SVGRepo_bgCarrier" stroke-width="0"/>
<g id="SVGRepo_tracerCarrier" stroke-linecap="round" stroke-linejoin="round"/>
<g id="SVGRepo_iconCarrier"> <g> <path d="M12.36,1H3.64A2.64,2.64,0,0,0,1,3.64v8.72A2.64,2.64,0,0,0,3.64,15h8.72A2.64,2.64,0,0,0,15,12.36V3.64A2.64,2.64,0,0,0,12.36,1ZM13.6,12.36a1.25,1.25,0,0,1-1.24,1.24H3.64A1.25,1.25,0,0,1,2.4,12.36V3.64A1.25,1.25,0,0,1,3.64,2.4h8.72A1.25,1.25,0,0,1,13.6,3.64ZM4,8.71h8V7.31H4Z"/> </g> </g>
</svg>