<?xml version="1.0" encoding="UTF-8"?>
<svg version="1.1" xmlns="http://www.w3.org/2000/svg" width="396" height="396">
<path d="M0 0 C0.81210796 -0.00297112 1.62421592 -0.00594224 2.46093321 -0.0090034 C5.16809857 -0.01763885 7.87521944 -0.01919428 10.58239746 -0.02069092 C12.52951145 -0.02532285 14.47662453 -0.03034801 16.42373657 -0.03573608 C21.70515218 -0.0488284 26.9865551 -0.05529918 32.26798439 -0.05974674 C35.57294 -0.06268338 38.87789219 -0.06678936 42.18284607 -0.07125092 C52.53854115 -0.08491925 62.89422834 -0.09458842 73.24993181 -0.09845281 C85.17508845 -0.10292811 97.10013016 -0.12045436 109.02525187 -0.1494534 C118.26122217 -0.1711276 127.49716028 -0.18116019 136.73315573 -0.18249393 C142.24054992 -0.1835381 147.74783599 -0.18936279 153.25520325 -0.20731354 C158.44270305 -0.22389305 163.63001459 -0.22590213 168.81753159 -0.21717453 C170.71083458 -0.21640934 172.60414811 -0.22067761 174.49742508 -0.23063278 C194.18934084 -0.32801888 210.43838391 1.62855338 225.37731934 15.78497314 C233.57278797 24.21819428 237.87805379 32.24521574 240.50915527 43.66485596 C240.68126904 44.40516178 240.8533828 45.14546761 241.03071213 45.90820694 C244.53091471 61.11504082 247.55501831 76.43009493 250.65856934 91.72149658 C251.49349406 95.82926769 252.33964294 99.93448026 253.19567871 104.03790283 C254.24312088 109.05949903 255.2698237 114.0849481 256.2828598 119.11359406 C256.66653253 121.00121119 257.0570112 122.887461 257.45511627 124.7720871 C261.78834671 145.3413909 264.02384637 165.75341789 252.60388184 184.39044189 C245.17731448 195.72589233 233.76770093 203.6467568 220.66638184 207.14044189 C215.16626314 208.07982614 209.79487709 208.3460304 204.23278809 208.45684814 C203.35485092 208.47762924 202.47691376 208.49841034 201.57237244 208.51982117 C198.79128199 208.58476134 196.01010399 208.64394116 193.22888184 208.70294189 C191.3336908 208.74618004 189.43850834 208.78979595 187.54333496 208.83380127 C182.9177717 208.94038511 178.29212113 209.04180597 173.66638184 209.14044189 C174.63984268 217.04854184 175.75064263 224.90234892 177.17419434 232.74200439 C185.33263229 277.86999912 185.33263229 277.86999912 177.56091309 290.62872314 C169.98217538 300.67641046 161.3413801 307.03256981 148.72497559 308.92950439 C129.91401533 310.226812 111.40645773 304.88858432 96.66638184 293.14044189 C96.02571777 292.65059814 95.38505371 292.16075439 94.72497559 291.65606689 C93.31974243 290.5475303 91.9828912 289.35301631 90.66638184 288.14044189 C90.66638184 287.48044189 90.66638184 286.82044189 90.66638184 286.14044189 C90.00638184 286.14044189 89.34638184 286.14044189 88.66638184 286.14044189 C86.99668745 284.13833026 85.46739672 282.13509725 83.95153809 280.01934814 C83.47096451 279.35576797 82.99039093 278.69218781 82.49525452 278.00849915 C75.73284824 268.56850684 69.44543356 258.80263658 63.10388184 249.07794189 C53.24166429 233.91599842 53.24166429 233.91599842 43.07653809 218.95684814 C42.33669678 217.89022949 41.59685547 216.82361084 40.83459473 215.72467041 C37.67103362 211.95411593 34.45757225 210.06348741 29.66638184 209.14044189 C27.4424604 209.03500764 25.21572876 208.98456745 22.98937988 208.96685791 C21.99587524 208.95682739 21.99587524 208.95682739 20.9822998 208.94659424 C19.54785156 208.93257771 18.11338145 208.92067293 16.67889977 208.91064644 C14.40404207 208.89417393 12.12934544 208.87093267 9.85456848 208.8457489 C3.38803197 208.77515351 -3.0785705 208.71497122 -9.54528809 208.66363525 C-13.50519561 208.63172528 -17.46491708 208.5904198 -21.42467308 208.54343987 C-22.9288312 208.52749174 -24.43303209 208.51513725 -25.93725014 208.50653267 C-28.0478349 208.49428683 -30.15798765 208.47009944 -32.26843262 208.44342041 C-33.4666011 208.43311295 -34.66476959 208.42280548 -35.89924622 208.41218567 C-42.53678017 207.88699255 -47.84632454 206.19753634 -52.33361816 201.14044189 C-56.99135204 193.95945137 -56.89208958 187.59222481 -56.81945801 179.18804932 C-56.8216071 177.78601223 -56.82548958 176.3839769 -56.83096313 174.98194885 C-56.84061416 171.19237122 -56.82540435 167.40326855 -56.80505705 163.61374831 C-56.78740569 159.63374539 -56.79101277 155.6537554 -56.79177856 151.67372131 C-56.78990841 144.98831305 -56.7725876 138.30308688 -56.74523926 131.61773682 C-56.71383016 123.91174898 -56.70324197 116.20596064 -56.70471036 108.49991339 C-56.70606672 100.26741691 -56.69215023 92.03499634 -56.67381716 83.8025229 C-56.66957483 81.44406671 -56.66813755 79.08562296 -56.66733932 76.72716331 C-56.66531396 73.00473176 -56.65297186 69.28246437 -56.63300705 65.5600872 C-56.62448052 63.55961669 -56.62549129 61.55911246 -56.62689209 59.55862427 C-56.50332484 41.95495927 -52.00528041 26.84206078 -39.33361816 14.14044189 C-27.98576556 4.14060634 -14.96916063 -0.01735028 0 0 Z M-11.33361816 45.14044189 C-15.11487966 50.64628561 -14.73932849 56.05002989 -14.67419434 62.47003174 C-14.67463242 63.60232208 -14.6750705 64.73461243 -14.67552185 65.9012146 C-14.67343588 69.63477973 -14.65011302 73.36789293 -14.62658691 77.10137939 C-14.6209903 79.69355016 -14.61672051 82.2857241 -14.61372375 84.87789917 C-14.60344916 90.99766375 -14.57981751 97.1172425 -14.54967529 103.23693717 C-14.5160944 110.20669109 -14.49963603 117.17645291 -14.48458898 124.14626765 C-14.45326669 138.47775997 -14.39826951 152.8090621 -14.33361816 167.14044189 C-6.08361816 167.14044189 2.16638184 167.14044189 10.66638184 167.14044189 C10.68892895 150.99011958 10.70736106 134.83981063 10.71819401 118.68947697 C10.72335694 111.19111125 10.73039959 103.69275598 10.74182129 96.19439697 C10.7517682 89.66113686 10.75823528 83.12788431 10.76047033 76.59461683 C10.76177743 73.13322383 10.7648632 69.67185247 10.77211189 66.21046638 C10.7801259 62.35256663 10.78037297 58.49468833 10.77990723 54.63677979 C10.7835025 53.48088348 10.78709778 52.32498718 10.790802 51.13406372 C10.78942734 50.08933395 10.78805267 49.04460419 10.78663635 47.96821594 C10.78755815 47.0547191 10.78847994 46.14122225 10.78942966 45.20004368 C10.89548441 43.14831835 10.89548441 43.14831835 9.66638184 42.14044189 C-1.3516244 41.28866956 -1.3516244 41.28866956 -11.33361816 45.14044189 Z " fill="#000000" transform="translate(96.3336181640625,67.85955810546875)"/>
</svg>
