<?xml version="1.0" encoding="UTF-8"?>
<svg version="1.1" xmlns="http://www.w3.org/2000/svg" width="96" height="96">
<path d="M0 0 C2.6875 0.875 2.6875 0.875 5 2 C5 4.31 5 6.62 5 9 C6.670625 9.0928125 6.670625 9.0928125 8.375 9.1875 C17.72782901 10.41030803 25.26004735 15.69112696 31 23 C34.73082946 28.83754162 36.61646426 34.09635661 37 41 C39.31 41 41.62 41 44 41 C45.125 43.3125 45.125 43.3125 46 46 C45.34 46.99 44.68 47.98 44 49 C40.375 49.1875 40.375 49.1875 37 49 C36.9071875 50.670625 36.9071875 50.670625 36.8125 52.375 C35.58969197 61.72782901 30.30887304 69.26004735 23 75 C17.16245838 78.73082946 11.90364339 80.61646426 5 81 C5 83.31 5 85.62 5 88 C2.6875 89.125 2.6875 89.125 0 90 C-0.99 89.34 -1.98 88.68 -3 88 C-3.1875 84.375 -3.1875 84.375 -3 81 C-4.11375 80.938125 -5.2275 80.87625 -6.375 80.8125 C-15.72782901 79.58969197 -23.26004735 74.30887304 -29 67 C-32.73082946 61.16245838 -34.61646426 55.90364339 -35 49 C-37.31 49 -39.62 49 -42 49 C-43.125 46.6875 -43.125 46.6875 -44 44 C-43.34 43.01 -42.68 42.02 -42 41 C-38.375 40.8125 -38.375 40.8125 -35 41 C-34.938125 39.88625 -34.87625 38.7725 -34.8125 37.625 C-33.58969197 28.27217099 -28.30887304 20.73995265 -21 15 C-15.16245838 11.26917054 -9.90364339 9.38353574 -3 9 C-3.061875 7.88625 -3.12375 6.7725 -3.1875 5.625 C-3.0946875 3.830625 -3.0946875 3.830625 -3 2 C-2.01 1.34 -1.02 0.68 0 0 Z M-19.9375 26.875 C-26.21874194 34.87469493 -27.17064283 41.89194939 -26 52 C-23.39898654 60.886796 -17.53647868 66.18738322 -9.875 70.9375 C-2.56901339 73.59574227 6.41555836 73.17812649 13.4375 70 C19.5104308 66.46411595 25.11161031 60.89332575 27.55859375 54.16796875 C29.26420331 45.79085986 28.9613606 37.64867866 24.6171875 30.1875 C20.54284369 24.67631031 14.89000751 19.40283036 8 18 C-3.35166001 16.76642522 -11.99372143 18.36853711 -19.9375 26.875 Z " fill="#000000" transform="translate(47,3)"/>
<path d="M0 0 C3.12578143 1.6720747 5.39281175 3.7856235 7 7 C7.51512617 11.09157355 7.94367269 15.23589546 5.953125 18.95703125 C3.55501226 21.85592636 1.60351712 23.79811835 -2.171875 24.2734375 C-9.98876369 24.58137554 -9.98876369 24.58137554 -13.5625 21.625 C-17.3057723 17.59378368 -17.39037018 14.90519941 -17.359375 9.55078125 C-16.78039966 5.44131496 -15.00085071 3.78650423 -12 1 C-8.27533151 -0.86233425 -4.05504687 -0.57130829 0 0 Z " fill="#000000" transform="translate(53,36)"/>
</svg>
