<svg id="edT5PsbvlcK1" xmlns="http://www.w3.org/2000/svg" xmlns:xlink="http://www.w3.org/1999/xlink" viewBox="0 0 512 512" shape-rendering="geometricPrecision" text-rendering="geometricPrecision" project-id="d3f908bbae1c403f9ce8133fdfe5d8b6" export-id="7279ce5567d64d95a2309d3e16b7b052" cached="false"><path d="M0,0C8.27062,9.576507,10.750314,17.311382,10.6875,29.875c-.004915,1.15637-.009829,2.312739-.014893,3.50415C10.234049,65.978673,-0.465592,96.700992,-16.625,124.75c-.383818.687715-.767637,1.37543-1.163086,2.083984-3.180991,5.121151-7.046188,7.378148-12.836914,8.916016-4.700037.688762-9.382431.966047-14.125,1.1875-2.461051.137295-4.921994.276558-7.382812.417969-1.133409.062358-2.266817.124717-3.434571.188965-3.400378.22861-6.700207.632714-10.057617,1.205566.424102.449883.848203.899766,1.285156,1.363281c6.795194,7.452312,14.158845,15.92636,13.993759,26.468979-.874593,6.797369-5.459318,11.936026-10.189071,16.538834-.567545.566628-1.13509,1.133257-1.719834,1.717056-1.196321,1.190319-2.397459,2.375813-3.603164,3.556625-1.810753,1.774504-3.605242,3.564222-5.397705,5.357178-6.81977,6.777434-13.828595,13.025139-21.369141,18.998047-1.81508,1.559502-3.628163,3.121338-5.4375,4.6875-56.00161,46.607792-127.957444,71.38127-199.5625,79.3125-1.585789.178616-1.585789.178616-3.203613.36084-6.004513.576233-11.813303.604859-17.827637.209473-15.562152-1.683899-15.562152-1.683899-29.582031,3.273437-2.888455,3.038169-5.047757,6.453478-7.122559,10.08252-2.066888,3.390526-4.732195,6.202602-7.38916,9.13623-4.433752,5.124811-8.647185,10.401659-12.799072,15.755859-3.115092,4.003278-6.336676,7.893838-9.638428,11.744141-3.61793,4.227528-7.117795,8.518856-10.5,12.9375-.406538.52908-.813076,1.058159-1.231934,1.603271-2.143819,2.804341-4.244043,5.634008-6.307128,8.498292-.433045.589746-.866089,1.179492-1.312256,1.787109-1.199953,1.635818-2.383851,3.283378-3.566651,4.931641-3.435035,3.653386-6.714315,5.168737-11.707031,6.078125-4.854499-.062774-8.492328-.989111-12.8125-3.398438-4.823899-5.204733-5.485834-8.809061-5.394531-15.78125c1.082414-8.830789,8.10737-15.503196,13.683594-22.011719c2.856699-3.347337,5.57006-6.79795,8.273437-10.269531c6.922679-8.862332,14.062548-17.528784,21.347168-26.095215c2.950138-3.474699,5.847014-6.986863,8.715332-10.529785c3.662519-4.520406,7.524847-8.802109,11.527344-13.023437c1.987342-2.46212,3.061547-4.222778,3.847656-7.289063-.339081-3.069408-.339081-3.069408-1.25-6.3125-3.204552-13.354574-4.135298-26.628591-4.0625-40.3125.002155-.737233.00431-1.474466.006531-2.234039.250701-53.782574,22.333624-106.566016,59.626282-145.344086c2.392992-2.497643,4.67132-5.053223,6.929687-7.671875c3.011421-3.407987,6.188803-6.414412,9.664063-9.34375c1.399575-1.195143,2.769781-2.42549,4.109375-3.6875C-265.015109,31.081751,-226.104621,11.042363,-186.625,-2.25c.846108-.290039,1.692217-.580078,2.563965-.878906C-138.336452,-18.6294,-40.405361,-34.633167,0,0ZM-278.625,89.75c-.585396.552847-1.170791,1.105693-1.773926,1.675293-18.871595,17.888027-33.357513,38.737131-44.226074,62.324707-.305347.655166-.610693,1.310332-.925293,1.985352-7.19871,15.673432-12.020009,32.883271-14.074707,50.014648-.10957.786328-.219141,1.572656-.332031,2.382813-.781277,6.646057-.770153,13.309136-.792969,19.992187-.004673.964058-.009346,1.928115-.01416,2.921387.002095.920551.004189,1.841103.006348,2.789551.001127.825483.002255,1.650966.003417,2.501464.136805,2.550765.571128,4.922848,1.129395,7.412598c5.866651-4.863281,11.229701-10.115328,16.589844-15.527344c1.380649-1.386436,2.761301-2.772869,4.142121-4.159135c2.888507-2.901553,5.772425-5.807667,8.657134-8.712996c2.381076-2.397741,4.763183-4.794436,7.147904-7.188553c1.77992-1.787374,3.55759-3.576993,5.332611-5.369232c4.33733-4.354853,8.733973-8.56359,13.40596-12.558899c2.755287-2.37088,5.386393-4.872371,8.036926-7.358841c4.873355-4.538485,9.89054-8.818488,15.085938-12.988281c2.551429-2.095544,4.98483-4.276351,7.414062-6.511719c4.372584-3.980085,8.929193-7.638475,13.597412-11.259521c4.548207-3.530597,9.014367-7.150562,13.465088-10.802979c5.541753-4.529539,11.157982-8.943547,16.875-13.25c1.00136-.757848,1.00136-.757848,2.022949-1.531006.626646-.46801,1.253291-.93602,1.898926-1.418213.547529-.409519,1.095059-.819038,1.65918-1.240967c5.167902-3.475255,9.54195-3.848,15.668945-3.122314c4.811199,1.35037,7.360841,2.961367,10,7.25c1.84223,6.908364,1.64261,11.465588-1.61499,17.696045-2.521468,3.739311-6.013507,6.129305-9.63501,8.741455-1.622336,1.214489-3.243404,2.430672-4.863281,3.648438-.816782.608115-1.633565,1.21623-2.475098,1.842773-3.690862,2.787389-7.27273,5.701824-10.849121,8.633789-.662739.541567-1.325479,1.083135-2.008301,1.641113-1.272122,1.040074-2.543634,2.080893-3.814453,3.122559-1.559229,1.276091-3.123757,2.545702-4.688965,3.814453-10.179116,8.262173-20.123516,16.795307-29.832031,25.605469-2.011834,1.817026-4.045354,3.60335-6.09375,5.378906-4.887293,4.264212-9.662534,8.649446-14.423828,13.053223-1.137575,1.051048-2.276912,2.100193-3.417969,3.147461-9.309846,8.55117-18.335894,17.371959-27.283203,26.299316-.546764.544176-1.093528,1.088351-1.65686,1.649017-1.554814,1.548991-3.105898,3.101608-4.65564,4.655671-.903633.90476-1.807266,1.809521-2.738281,2.741699-2.063225,1.725258-2.063225,1.725258-1.949219,3.078613c8.826053.236656,17.321191-.427804,26.0625-1.625c1.953051-.266232,1.953051-.266232,3.945557-.537842c51.78982-7.287679,101.525596-26.841179,144.012939-57.415771c2.156557-1.548911,4.327087-3.077026,6.498535-4.604981c14.753132-10.442412,28.807854-21.888638,41.480469-34.816406-1.554704-4.68188-4.128481-8.172498-7.0625-12.0625-.485171-.653232-.970342-1.306465-1.470215-1.979492-2.367184-3.181508-4.758133-6.344604-7.158691-9.500977-.411775-.543259-.82355-1.086518-1.247803-1.64624-1.122193-1.47708-2.251441-2.948791-3.381103-4.420166-3.535995-5.032625-3.138102-10.465195-2.679688-16.390625c1.377973-4.210472,3.143767-6.700651,6.897949-9.101318c4.869373-2.081784,10.382378-2.050294,15.602051-2.461182c1.311943-.130356,2.623887-.260713,3.975586-.39502c6.263185-.617481,12.475483-1.091064,18.771118-1.138702c13.829661.470966,13.829661.470966,25.927124-4.80368c3.649092-4.953674,5.462736-10.436931,7.061524-16.327149.703833-2.552408,1.544326-4.961076,2.506836-7.425293C-24.704938,59.980914,-21.747819,42.976869,-22.625,25.75c-8.847412-2.465262-17.650944-4.399859-26.75-5.6875-.837488-.118997-1.674976-.237993-2.537842-.360596C-132.547532,8.81932,-219.405165,32.990971,-278.625,89.75Z" transform="matrix(.754436 0 0 0.754434 455.359117 144.634099)"/><g transform="translate(-164.186846-279.852754)"><line x1="0" y1="-60" x2="0" y2="60" transform="translate(307.955478 442.02047)" fill="none" stroke="#000" stroke-width="25" stroke-linecap="round"/><line x1="0" y1="-60" x2="0" y2="60" transform="matrix(0-1 1 0 307.955478 442.02047)" fill="none" stroke="#000" stroke-width="25" stroke-linecap="round"/></g></svg>
